# xmcd
#
# Track frame offsets:
#	150
#	19932
#	39127
#	58447
#	77871
#	93945
#
# Disc length: 1559 seconds
#
# Revision: 1
# Processed by: cddbd v1.4PL0 Copyright (c) Steve Scherf et al.
# Submitted via: audiograbber 1.81.03
#
DISCID=44061506
DTITLE=Kerry Gail - If You Can Dream It You Can Do It
DYEAR=2000
DGENRE=Alternative
TTITLE0=Heart On Your Sleeve
TTITLE1=And In My Mind
TTITLE2=I Feel Like A Woman Tonight
TTITLE3=He Amazes Me
TTITLE4=Fire
TTITLE5=If You Can
EXTD=
EXTT0=
EXTT1=
EXTT2=
EXTT3=
EXTT4=
EXTT5=
PLAYORDER=
